General
Complete name                            : Seven Samurai [1954] 720p BRRip H264 AC3 - CODY.mp4
Format                                   : MPEG-4
Format profile                           : Base Media
Codec ID                                 : isom
File size                                : 3.05 GiB
Duration                                 : 3h 26mn
Overall bit rate mode                    : Variable
Overall bit rate                         : 2 111 Kbps
Encoded date                             : UTC 2012-07-23 02:20:38

Video
ID                                       : 1
Format                                   : AVC
Format/Info                              : Advanced Video Codec
Format profile                           : High@L4.1
Format settings, CABAC                   : Yes
Format settings, ReFrames                : 5 frames
Codec ID                                 : avc1
Codec ID/Info                            : Advanced Video Coding
Duration                                 : 3h 26mn
Bit rate mode                            : Variable
Bit rate                                 : 1 660 Kbps
Maximum bit rate                         : 20.0 Mbps
Width                                    : 960 pixels
Height                                   : 720 pixels
Display aspect ratio                     : 4:3
Frame rate mode                          : Constant
Frame rate                               : 23.976 fps
Color space                              : YUV
Chroma subsampling                       : 4:2:0
Bit depth                                : 8 bits
Scan type                                : Progressive
Bits/(Pixel*Frame)                       : 0.100
Stream size                              : 2.40 GiB (79%)
Writing library                          : x264 core 125 r2200 999b753
Encoding settings                        : rc=2pass
Color primaries                          : Generic film

Audio
ID                                       : 2
Format                                   : AC-3
Format/Info                              : Audio Coding 3
Mode extension                           : CM (complete main)
Codec ID                                 : ac-3
Duration                                 : 3h 26mn
Bit rate mode                            : Constant
Bit rate                                 : 448 Kbps
Channel(s)                               : 6 channels
Channel positions                        : Front: L C R, Side: L R, LFE
Sampling rate                            : 48.0 KHz
Bit depth                                : 16 bits
Compression mode                         : Lossy
Stream size                              : 663 MiB (21%)


IMDB link:                                 http://www.imdb.com/title/tt0047478/


Subtitles included                       : Arabic, Dutch, English, French,
                                           German, Hebrew, Romanian, Spanish,
                                           Portuguese, Portuguese-Brazilian,
                                           Turkish, Vietnamese


Please seed at least 1,5:1. This way this torrent has a chance to survive!


Thanks. Enjoy! 		
